<svg height="512" viewBox="0 0 60 60" width="512" xmlns="http://www.w3.org/2000/svg"><g id="Page-1" fill="none" fill-rule="evenodd"><g id="042---Folder" fill="rgb(0,0,0)" fill-rule="nonzero" transform="translate(0 -1)"><path id="Shape" d="m5 5c-.55228475 0-1 .44771525-1 1v2c0 .55228475.44771525 1 1 1s1-.44771525 1-1v-2c0-.55228475-.44771525-1-1-1z"/><path id="Shape" d="m10 8v-2c0-.55228475-.44771525-1-1-1s-1 .44771525-1 1v2c0 .55228475.44771525 1 1 1s1-.44771525 1-1z"/><path id="Shape" d="m13 9c.5522847 0 1-.44771525 1-1v-2c0-.55228475-.4477153-1-1-1s-1 .44771525-1 1v2c0 .55228475.4477153 1 1 1z"/><path id="Shape" d="m17 9c.5522847 0 1-.44771525 1-1v-2c0-.55228475-.4477153-1-1-1s-1 .44771525-1 1v2c0 .55228475.4477153 1 1 1z"/><path id="Shape" d="m39 7.013v-4.179c.0054558-.72693628-.424061-1.3867623-1.091-1.676-.6523379-.29773994-1.4191743-.17988598-1.952.3l-8.635 7.542h-1.1c-1.0359743.00093826-1.9996278-.53094104-2.551-1.408l-2.646-4.247c-.9158382-1.46150322-2.5202555-2.34780677-4.245-2.345h-11.78c-2.76005315.00330612-4.99669388 2.23994685-5 5v50c.00330612 2.7600532 2.23994685 4.9966939 5 5h41.14c2.1389444.0004912 4.0403089-1.3622807 4.727-3.388l7.453-21.893c.1818607.1779858.4255459.2786852.68.281.033 0 .067 0 .1-.005.510991-.0513565.9000065-.4814347.9-.995 0-9.939-2.588-17.448-7.694-22.315-3.626167-3.4029452-8.339947-5.41230641-13.306-5.672zm9.973 49.956c-.4114781 1.2141825-1.5509885 2.0311065-2.833 2.031h-41.14c-1.65685425 0-3-1.3431458-3-3v-50c0-1.65685425 1.34314575-3 3-3h11.78c1.0359743-.00093826 1.9996278.53094104 2.551 1.408l2.644 4.247c.720173 1.14244335 1.8718585 1.9449802 3.193 2.225l-3.625 3.165c-.7211711.7228923-.7211711 1.8931077 0 2.616.014.014.027.027.041.039l.336.3h-4.58c-2.2026954.0045411-4.1448005 1.4453007-4.788 3.552l-1.89 5.62c-.1756638.5232734.1058676 1.0899168.629 1.266.1027536.0347442.2105317.0523131.319.052.4294448.0001053.8110071-.2739917.948-.681l1.9-5.657c.3818805-1.2737662 1.5522278-2.1476687 2.882-2.152h6.819l6.718 6h-9.537c-2.202422.0044063-4.1444411 1.4446966-4.788 3.551l-7.8 23.13c-.17566382.5232734.10586756 1.0899168.629 1.266.10270092.0350663.21047753.0529728.319.053.4294448.0001053.8110071-.2739917.948-.681l7.811-23.167c.3817731-1.2734134 1.551598-2.1472291 2.881-2.152h11.776l2.827 2.524c.5362995.4858712 1.3086415.6098516 1.9700668.3162455.6614252-.2936062 1.0875449-.9495829 1.0869332-1.6732455v-1.167h13.27c2.095423 1.5222884 3.7809845 3.5400834 4.906 5.873zm-9.973-31.969v-1.986c3.3567483.0236771 6.6770472.6981288 9.777 1.986zm-1-4c-.5522847 0-1 .4477153-1 1v5.787l-13.919-12.433 13.919-12.147v4.793c.0002212.27323031.1122332.53447111.31.723.1945253.19319172.4623684.29399681.736.277 4.791727.05288841 9.3914716 1.8910034 12.9 5.155 3.8 3.634 6.075 8.941 6.8 15.815-2.663-3.981-8.288-8.97-19.746-8.97z"/></g></g></svg>