<svg height="512" viewBox="0 0 60 60" width="512" xmlns="http://www.w3.org/2000/svg"><g id="Page-1" fill="none" fill-rule="evenodd"><g id="041---Folder" fill="rgb(0,0,0)" fill-rule="nonzero"><path id="Shape" d="m5 60h41.136c2.1407961.0002748 4.0442355-1.3623691 4.734-3.389l8.919-26.2c.4367327-1.4691889.1733223-3.057613-.7142664-4.307188-.8875887-1.2495749-2.3006726-2.0213716-3.8317336-2.092812l.546-1.6c.4443078-1.5104436.1512258-3.141938-.7910102-4.4033026s-2.4235555-2.0052488-3.9979898-2.0076974h-1v-3c-.0033061-2.7600532-2.2399468-4.99669388-5-5h-18.78c-1.0359743.00093826-1.9996278-.53094104-2.551-1.408l-2.644-4.247c-.9158382-1.46150322-2.5202555-2.34780677-4.245-2.345h-11.78c-2.76005315.00330612-4.99669388 2.23994685-5 5v50c.00330612 2.7600532 2.23994685 4.9966939 5 5zm-3-55c0-1.65685425 1.34314575-3 3-3h11.78c1.0359743-.00093826 1.9996278.53094104 2.551 1.408l2.644 4.247c.9158382 1.46150322 2.5202555 2.3478068 4.245 2.345h18.78c1.6568542 0 3 1.3431458 3 3v3h-30.66c-2.2026954.0045411-4.1448005 1.4453007-4.788 3.552l-1.89 5.62c-.1756638.5232734.1058676 1.0899168.629 1.266.1027536.0347442.2105317.0523131.319.052.4294448.0001053.8110071-.2739917.948-.681l1.9-5.657c.3818805-1.2737662 1.5522278-2.1476687 2.882-2.152h33.66c.937282.0016931 1.8199103.4413484 2.3858848 1.1884583s.750246 1.7158067.4981152 2.6185417l-.749 2.193h-31.795c-2.202422.0044063-4.1444411 1.4446966-4.788 3.551l-7.8 23.13c-.17617881.5246705.10632951 1.0928211.63100001 1.269.5246705.1761788 1.09282109-.1063295 1.26899999-.631l7.813-23.167c.3811263-1.2712999 1.5478203-2.1445957 2.875-2.152h33.66c.9373377.0019182 1.8199066.4418377 2.3856959 1.1891584s.7497629 1.7161399.4973041 2.6188416l-8.907 26.159c-.4139486 1.2156813-1.5557747 2.0330519-2.84 2.033h-41.136c-1.65685425 0-3-1.3431458-3-3z"/><path id="Shape" d="m22 30h2c.5522847 0 1-.4477153 1-1s-.4477153-1-1-1h-2c-.5522847 0-1 .4477153-1 1s.4477153 1 1 1z"/><path id="Shape" d="m29 30h17c.5522847 0 1-.4477153 1-1s-.4477153-1-1-1h-17c-.5522847 0-1 .4477153-1 1s.4477153 1 1 1z"/><path id="Shape" d="m5 8c.55228475 0 1-.44771525 1-1v-2c0-.55228475-.44771525-1-1-1s-1 .44771525-1 1v2c0 .55228475.44771525 1 1 1z"/><path id="Shape" d="m9 8c.55228475 0 1-.44771525 1-1v-2c0-.55228475-.44771525-1-1-1s-1 .44771525-1 1v2c0 .55228475.44771525 1 1 1z"/><path id="Shape" d="m13 8c.5522847 0 1-.44771525 1-1v-2c0-.55228475-.4477153-1-1-1s-1 .44771525-1 1v2c0 .55228475.4477153 1 1 1z"/><path id="Shape" d="m17 8c.5522847 0 1-.44771525 1-1v-2c0-.55228475-.4477153-1-1-1s-1 .44771525-1 1v2c0 .55228475.4477153 1 1 1z"/></g></g></svg>